<svg xmlns="http://www.w3.org/2000/svg" id="Layer_2" data-name="Layer 2" viewBox="0 0 166 106.27">
  <g id="Layer_1-2" data-name="Layer 1">
    <g>
      <path d="m60.42,3.56c16.51,0,33.01,0,49.52,0,9.59,0,12.77,5.07,8.74,13.64-6.21,13.2-12.31,26.45-18.44,39.69-3.19,6.9-8.78,10.46-16.16,10.57-15.43.24-30.86.24-46.29,0-7.34-.11-12.97-3.59-16.31-10.41C14.81,43.41,8.1,29.79,1.36,16.18c-3.45-6.97-.12-12.56,7.75-12.6,17.1-.07,34.21-.02,51.31-.02Z" fill="#ffffff"/>
      <path d="m98.56,79.3H25.08c-.73,0-1.32-.59-1.32-1.32h0c0-.73.59-1.32,1.32-1.32h73.48c1.73,0,3.32-.89,4.16-2.33L135.37,3.76l.03-.05c1.3-2.29,3.79-3.71,6.48-3.71h22.8c.73,0,1.32.59,1.32,1.32h0c0,.73-.59,1.32-1.32,1.32h-22.8c-1.73,0-3.32.89-4.16,2.33l-32.65,70.57-.03.05c-1.3,2.29-3.79,3.71-6.48,3.71Z" fill="#ffffff"/>
      <circle cx="37.54" cy="96.04" r="10.24" fill="#ffffff"/>
      <circle cx="85.09" cy="96.04" r="10.24" fill="#ffffff"/>
    </g>
  </g>
</svg>