<svg xmlns="http://www.w3.org/2000/svg" id="Layer_2" data-name="Layer 2" viewBox="0 0 166.17 165.65">
  <g id="Layer_1-2" data-name="Layer 1">
    <g>
      <g>
        <path d="m34.94,70.31s0,.01,0,.02c7.24,0,14.47.1,21.7-.02,8.64-.14,13.52-4.86,13.6-13.39.13-14.47.13-28.94,0-43.41-.07-7.65-4.13-12.8-11.7-13.08C42.73-.14,26.88-.07,11.06.22,5.26.33.34,5.12.23,10.85-.09,26.85-.12,42.87.43,58.85c.25,7.22,5.48,11.27,12.8,11.42,7.23.15,14.47.03,21.7.03Z" fill="#ffffff"/>
        <path d="m125.66,70.24c7.58,0,15.16.15,22.74-.04,7.3-.19,12.3-5.11,12.39-12.43.18-14.98.16-29.97,0-44.96-.07-6.99-4.25-12.13-11.28-12.37-15.99-.55-32-.53-48-.24-5.76.11-10.62,4.97-10.72,10.74-.29,15.99-.3,32.01.24,48,.24,6.97,5.44,11.11,12.4,11.27,7.4.17,14.81.04,22.22.03Z" fill="#ffffff"/>
      </g>
      <g>
        <path d="m70.25,125.46c0-7.41.13-14.82-.04-22.22-.16-7-4.25-12.18-11.24-12.42-15.98-.55-32-.54-48-.25-5.78.1-10.66,4.94-10.77,10.69-.3,15.99-.33,32.01.23,48,.25,7.17,5.53,11.28,12.87,11.35,14.64.13,29.29.14,43.93,0,7.96-.08,12.82-4.98,13-12.92.16-7.4.04-14.81.02-22.22Z" fill="#ffffff"/>
        <path d="m148.47,147.87c4.7-4.7,9.48-9.31,14.07-14.12,4.34-4.55,5.03-10.42.75-15.01-9.79-10.49-19.96-20.64-30.29-30.61-3.73-3.6-9.9-3.63-13.61-.05-10.34,9.96-20.51,20.1-30.3,30.59-4.39,4.7-3.65,10.66.96,15.36,9.2,9.37,18.49,18.67,27.87,27.86,5.1,5,11.29,4.97,16.44.05,4.8-4.59,9.42-9.37,14.11-14.08Z" fill="#ffffff"/>
      </g>
    </g>
  </g>
</svg>