<svg xmlns="http://www.w3.org/2000/svg" id="Layer_2" data-name="Layer 2" viewBox="0 0 142.46 147.31">
  <defs fill="#f7f7f7">
    <style>
      .cls-1 {
        fill: #FFFFFFFF;
        stroke: #FF6A00;
        stroke-miterlimit: 10;
        stroke-width: 4px;
      }
    </style>
  </defs>
  <g id="Layer_1-2" data-name="Layer 1">
    <g>
      <path d="m70.84,147.29c-15.5,0-31,.03-46.49,0-16.12-.04-24.25-7.98-24.31-23.88C-.04,103.96.07,84.52,0,65.07c-.03-7.78,2.68-14.06,8.75-19.12,15.62-13.03,31.05-26.31,46.64-39.38,10.41-8.73,20.58-8.77,31.14-.04,15.86,13.1,31.55,26.4,47.36,39.55,5.85,4.86,8.6,10.94,8.56,18.53-.1,20.1.04,40.21-.06,60.32-.07,13.85-8.49,22.24-22.41,22.33-16.38.11-32.77.03-49.15.03Z" fill="#f7f7f7"/>
      <line class="cls-1" x1="71.23" y1="128.28" x2="71.23" y2="86.16" fill="#f7f7f7"/>
    </g>
  </g>
</svg>