<svg xmlns="http://www.w3.org/2000/svg" id="Layer_2" data-name="Layer 2" viewBox="0 0 141.23 134.9">
  <g id="Layer_1-2" data-name="Layer 1">
    <path d="m7.06,134.82c7.19-6.24,12.22-14.35,16.07-22.98,2.73-6.11,1.61-11.42-3.52-15.81-8.92-7.63-15.57-16.79-18.25-28.33-4.09-17.64,1.22-32.74,13.44-45.57C25.76,10.64,39.53,4.23,54.97,1.5c21.24-3.74,41.41-.65,59.77,11.07,13.63,8.7,23.23,20.56,25.85,37,2.43,15.17-2.16,28.42-12.17,39.8-11.98,13.61-27.53,20.52-45.15,23.27-2.48.39-5.07.21-7.49.78-2.59.61-5.46,1.26-7.5,2.82-13.07,9.99-28.16,14.63-44.06,17.15-5.64.89-11.48.84-17.16,1.44-.08-.27.08.27,0,0ZM81.25,57.9c.01-4.08-3.32-7.48-7.32-7.47-4.08.01-7.28,3.31-7.25,7.46.03,4.02,3.12,7.18,7.1,7.29,4.03.11,7.45-3.23,7.46-7.28Zm-30.79-.18c-.04-4.13-3.38-7.4-7.43-7.29-3.87.11-7.17,3.49-7.13,7.33.04,4.11,3.35,7.46,7.35,7.45,4.07-.01,7.26-3.32,7.22-7.49Zm62.35.2c0-4.16-3.12-7.39-7.24-7.48-3.8-.08-7.26,3.29-7.33,7.13-.08,4.31,3.19,7.62,7.46,7.57,4-.04,7.1-3.19,7.11-7.22Z" fill="#ffffff"/>
  </g>
</svg>