<svg id="Layer_1" data-name="Layer 1" xmlns="http://www.w3.org/2000/svg"
    viewBox="0 0 61.15 50.02">
    <path fill="none" stroke="black" stroke-width="2.86" d="M516.14,533.91v26.68a3.07,3.07,0,0,0,3.15,3h41.42a3.07,3.07,0,0,0,3.15-3V533.91Zm28.25,10.21h-8.78V541.2h8.78Z" transform="translate(-509.42 -514.99)"/>
    <path fill="black" d="M569.14,519.41v11.5a3.08,3.08,0,0,1-3.15,3H514a3.08,3.08,0,0,1-3.15-3v-11.5a3.07,3.07,0,0,1,3.15-3h52A3.07,3.07,0,0,1,569.14,519.41Z" transform="translate(-509.42 -514.99)"/>
    <rect fill="black" x="26.19" y="26.21" width="8.78" height="2.91"/></svg>